<?xml version="1.0" standalone="no"?>
<!DOCTYPE svg PUBLIC "-//W3C//DTD SVG 20010904//EN"
 "http://www.w3.org/TR/2001/REC-SVG-20010904/DTD/svg10.dtd">
<svg version="1.0" xmlns="http://www.w3.org/2000/svg"
 width="990.000000pt" height="661.000000pt" viewBox="0 0 990.000000 661.000000"
 preserveAspectRatio="xMidYMid meet">

<g transform="translate(0.000000,661.000000) scale(0.100000,-0.100000)"
fill="#000000" stroke="none">
<path d="M90 3310 l0 -3220 4875 0 4875 0 0 3220 0 3220 -4875 0 -4875 0 0
-3220z m9265 0 l0 -2735 -4390 0 -4390 0 -3 2725 c-1 1499 0 2731 3 2738 3 10
887 12 4392 10 l4388 -3 0 -2735z"/>
<path d="M2454 5509 c-41 -60 -105 -112 -192 -157 -96 -50 -179 -72 -271 -72
l-71 0 0 -99 0 -98 -87 -5 c-150 -9 -251 -62 -310 -160 -39 -63 -53 -118 -31
-118 8 0 37 22 65 49 64 62 119 80 256 88 l107 6 0 -421 c0 -459 -4 -508 -48
-543 -34 -27 -58 -23 -194 30 -175 68 -240 67 -314 -1 -44 -40 -74 -108 -74
-165 0 -21 3 -24 30 -27 6 -1 16 10 23 24 7 13 24 31 39 40 25 14 35 12 141
-23 l114 -37 231 80 c383 133 463 174 544 280 50 66 58 125 58 447 l0 292 126
3 126 3 29 78 28 77 -154 0 -155 0 0 126 c0 115 1 125 18 120 143 -45 290 -26
359 46 40 43 53 69 62 129 7 46 7 49 -13 49 -14 0 -28 -12 -40 -34 -45 -84
-137 -86 -298 -6 l-76 39 -28 -40z m-186 -789 c-3 -421 -4 -426 -27 -485 -32
-79 -111 -158 -211 -209 -52 -27 -70 -33 -59 -20 8 10 34 41 57 68 23 26 52
73 64 105 22 55 23 64 26 558 l3 502 47 10 c26 5 58 14 72 19 25 9 25 9 28
-57 2 -36 2 -257 0 -491z"/>
<path d="M7668 5484 l-67 -65 44 -55 c40 -49 45 -60 45 -105 0 -45 -4 -54 -45
-98 -30 -32 -43 -54 -39 -65 8 -21 10 -21 65 15 53 33 105 88 142 146 25 40
67 144 67 167 0 11 -131 126 -142 126 -2 0 -33 -30 -70 -66z"/>
<path d="M7067 5191 c-77 -95 -137 -179 -137 -190 0 -18 6 -21 46 -21 l45 0
-3 -334 -3 -335 -32 -33 c-18 -19 -33 -37 -33 -40 0 -4 17 -12 38 -19 57 -18
112 -47 168 -89 l51 -38 107 84 c90 71 105 88 95 100 -10 12 -16 11 -44 -11
l-33 -25 -56 46 -56 46 0 324 0 324 100 0 100 0 0 55 0 55 -98 0 -99 0 5 135
c4 113 2 135 -10 135 -8 0 -76 -76 -151 -169z"/>
<path d="M8520 5260 c-11 -11 -20 -27 -20 -35 0 -21 25 -68 44 -84 23 -19 20
-44 -10 -72 -23 -21 -34 -24 -102 -23 -64 1 -94 7 -182 41 l-105 40 -59 -54
c-40 -36 -84 -63 -138 -85 l-78 -32 0 -182 0 -182 105 -57 105 -56 -47 -62
c-26 -34 -87 -111 -136 -172 -48 -60 -86 -116 -85 -123 7 -36 34 -35 81 1 99
76 218 75 340 -3 l48 -30 47 39 c63 52 131 87 197 101 l55 12 -2 205 -3 205
-100 54 c-55 30 -104 55 -110 57 -5 2 33 57 86 123 125 155 155 200 169 256
25 99 -41 177 -100 118z m-249 -367 c35 -3 81 -1 102 5 29 8 35 8 30 -2 -25
-40 -197 -256 -205 -256 -5 0 -35 14 -68 30 l-60 30 0 133 0 133 69 -34 c49
-24 88 -36 132 -39z m45 -319 l64 -36 0 -134 0 -134 -37 19 c-98 49 -201 63
-287 37 -26 -8 -46 -11 -44 -7 9 22 223 291 230 291 6 0 39 -16 74 -36z"/>
<path d="M3355 5080 c-49 -28 -129 -66 -177 -86 l-88 -37 0 -329 c0 -275 -2
-334 -15 -358 -9 -17 -20 -30 -25 -30 -23 0 -8 -30 18 -36 106 -24 156 -40
222 -72 41 -20 80 -36 85 -35 12 0 302 199 310 212 2 5 -1 13 -8 19 -9 7 -32
-5 -86 -43 l-74 -54 -54 21 c-30 11 -80 30 -111 43 l-57 23 0 92 0 93 210 148
c116 82 211 153 213 158 3 8 -253 314 -267 318 -3 1 -46 -20 -96 -47z m66
-195 c63 -69 114 -130 114 -134 0 -8 -180 -142 -232 -175 -10 -6 -13 40 -13
213 0 122 4 221 9 221 5 0 60 -56 122 -125z"/>
<path d="M3917 5056 c-111 -92 -111 -92 -103 -111 5 -15 9 -14 36 5 18 13 38
19 48 15 38 -11 42 -46 42 -336 0 -296 -4 -323 -49 -363 -11 -11 -21 -23 -21
-27 0 -4 23 -15 52 -25 28 -9 86 -41 129 -70 l78 -53 113 90 c140 112 132 104
121 123 -8 15 -16 12 -60 -24 l-51 -40 -56 46 -56 46 0 278 0 277 51 48 c28
26 54 43 58 39 5 -5 32 -44 60 -87 l52 -78 73 68 74 67 -52 66 c-28 36 -61 78
-73 94 l-22 28 -104 -91 c-57 -50 -107 -91 -110 -91 -2 0 -8 15 -11 33 -4 23
-25 52 -63 90 -32 32 -60 57 -63 57 -3 -1 -44 -34 -93 -74z"/>
<path d="M4689 5054 c-118 -94 -113 -89 -105 -109 5 -15 10 -14 41 5 43 27 61
21 80 -25 12 -27 15 -94 15 -334 l0 -300 -35 -28 c-19 -15 -35 -31 -35 -35 0
-4 38 -37 85 -73 l85 -67 85 68 86 68 -36 36 -35 36 0 276 0 275 74 62 c41 33
78 61 83 61 5 0 27 -18 48 -40 l40 -41 3 -290 3 -291 -35 -42 -35 -43 84 -67
85 -67 85 67 86 68 -36 36 -35 36 0 275 0 275 77 66 77 66 47 -40 48 -40 3
-332 c3 -329 3 -331 27 -373 13 -23 41 -56 62 -72 l37 -31 104 81 c57 45 104
84 105 87 2 4 -1 13 -6 21 -7 11 -14 10 -39 -8 -37 -26 -44 -26 -68 0 -18 20
-19 40 -19 333 0 339 -2 326 62 397 30 33 33 41 23 55 -12 13 -19 9 -60 -31
l-46 -45 -81 75 -81 75 -132 -115 c-73 -63 -137 -112 -141 -109 -5 3 -9 15 -9
26 0 41 -41 107 -96 153 -49 43 -57 46 -72 33 -9 -8 -73 -61 -142 -118 l-124
-103 -11 59 c-15 79 -47 123 -121 167 -5 3 -53 -28 -105 -69z"/>
<path d="M6367 5094 c-56 -39 -103 -54 -170 -54 -30 0 -49 -5 -53 -13 -2 -7
22 -69 54 -137 l58 -124 -65 -85 c-93 -125 -125 -197 -129 -297 -4 -72 -1 -87
23 -133 35 -69 129 -168 147 -154 7 6 74 58 149 116 l137 105 6 -48 c7 -53 43
-113 93 -154 l32 -27 106 83 c58 46 105 88 105 95 0 22 -18 23 -44 2 -18 -14
-34 -19 -51 -15 -41 10 -46 58 -43 385 l3 298 37 72 c31 60 34 71 19 71 -10 0
-26 -9 -36 -20 -11 -12 -31 -20 -49 -20 -40 0 -160 33 -228 63 l-53 24 -48
-33z m-5 -144 l158 -51 0 -129 0 -130 -108 54 -107 54 -34 73 c-18 41 -44 98
-57 127 -13 28 -21 52 -17 52 4 0 78 -23 165 -50z m158 -468 l-1 -117 -75 -58
-75 -58 -28 20 c-38 28 -80 90 -97 147 -24 80 -18 152 23 261 l15 42 119 -60
119 -59 0 -118z"/>
<path d="M3898 3996 c-49 -13 -110 -50 -148 -91 l-22 -23 -51 39 c-52 39 -113
66 -124 55 -3 -3 12 -25 35 -50 22 -24 45 -61 51 -82 7 -25 11 -205 11 -507 0
-497 -1 -509 -49 -551 -11 -11 -21 -23 -21 -27 0 -4 22 -15 49 -24 43 -14 114
-56 186 -109 19 -14 26 -11 105 50 106 82 104 79 96 99 -6 16 -8 16 -30 1 -24
-15 -27 -14 -80 30 l-56 45 0 467 c0 283 5 485 11 512 13 57 44 103 92 137 20
14 37 30 37 34 0 12 -36 10 -92 -5z"/>
<path d="M6037 3711 c-77 -95 -137 -179 -137 -190 0 -18 6 -21 46 -21 l45 0
-3 -334 -3 -335 -32 -33 c-18 -19 -33 -37 -33 -40 0 -4 17 -12 38 -19 57 -18
112 -47 168 -89 l51 -38 107 84 c90 71 105 88 95 100 -10 12 -16 11 -44 -11
l-33 -25 -56 46 -56 46 0 324 0 324 100 0 100 0 0 55 0 55 -98 0 -99 0 5 135
c4 113 2 135 -10 135 -8 0 -76 -76 -151 -169z"/>
<path d="M5700 3780 c-11 -11 -20 -27 -20 -35 0 -21 25 -68 44 -84 23 -19 20
-44 -10 -72 -23 -21 -34 -24 -102 -23 -64 1 -94 7 -182 41 l-105 40 -59 -54
c-40 -36 -84 -63 -138 -85 l-78 -32 0 -182 0 -182 105 -57 105 -56 -47 -62
c-26 -34 -87 -111 -136 -172 -48 -60 -86 -116 -85 -123 7 -36 34 -35 81 1 99
76 218 75 340 -3 l48 -30 47 39 c63 52 131 87 197 101 l55 12 -2 205 -3 205
-100 54 c-55 30 -104 55 -110 57 -5 2 33 57 86 123 125 155 155 200 169 256
25 99 -41 177 -100 118z m-249 -367 c35 -3 81 -1 102 5 29 8 35 8 30 -2 -25
-40 -197 -256 -205 -256 -5 0 -35 14 -68 30 l-60 30 0 133 0 133 69 -34 c49
-24 88 -36 132 -39z m45 -319 l64 -36 0 -134 0 -134 -37 19 c-98 49 -201 63
-287 37 -26 -8 -46 -11 -44 -7 9 22 223 291 230 291 6 0 39 -16 74 -36z"/>
<path d="M4427 3614 c-56 -39 -103 -54 -170 -54 -30 0 -49 -5 -53 -13 -2 -7
22 -69 54 -137 l58 -124 -65 -85 c-93 -125 -125 -197 -129 -297 -4 -72 -1 -87
23 -133 35 -69 129 -168 147 -154 7 6 74 58 149 116 l137 105 6 -48 c7 -53 43
-113 93 -154 l32 -27 106 83 c58 46 105 88 105 95 0 22 -18 23 -44 2 -18 -14
-34 -19 -51 -15 -41 10 -46 58 -43 385 l3 298 37 72 c31 60 34 71 19 71 -10 0
-26 -9 -36 -20 -11 -12 -31 -20 -49 -20 -40 0 -160 33 -228 63 l-53 24 -48
-33z m-5 -144 l158 -51 0 -129 0 -130 -108 54 -107 54 -34 73 c-18 41 -44 98
-57 127 -13 28 -21 52 -17 52 4 0 78 -23 165 -50z m158 -468 l-1 -117 -75 -58
-75 -58 -28 20 c-38 28 -80 90 -97 147 -24 80 -18 152 23 261 l15 42 119 -60
119 -59 0 -118z"/>
<path d="M2830 2577 c-70 -80 -118 -82 -505 -27 -276 40 -408 47 -503 26 -186
-39 -316 -152 -372 -321 -21 -64 -21 -67 -4 -86 17 -19 18 -18 40 36 30 73 57
109 108 144 73 50 154 72 258 69 l90 -3 -81 -63 c-146 -113 -263 -292 -297
-452 -20 -96 -14 -242 15 -323 48 -136 167 -273 291 -334 122 -60 207 -78 370
-77 132 0 152 3 225 28 195 67 335 200 409 388 31 78 32 88 9 88 -11 0 -30
-21 -48 -51 -66 -112 -181 -205 -309 -249 l-56 -19 0 497 0 497 82 -3 c162 -7
263 41 317 149 35 70 39 104 14 117 -14 7 -26 0 -53 -31z m-772 -567 c1 -248
-2 -414 -8 -446 -8 -39 -21 -60 -53 -93 l-43 -41 -67 69 c-150 155 -192 355
-120 573 32 98 85 181 171 271 52 54 71 67 92 65 l25 -3 3 -395z m339 344 l23
-6 0 -498 c0 -563 10 -506 -89 -516 -74 -8 -186 10 -268 43 l-66 26 49 41 c97
80 187 172 200 203 11 25 14 108 14 379 l0 347 57 -7 c31 -4 67 -9 80 -12z"/>
<path d="M3333 2545 c-54 -16 -121 -56 -151 -88 l-24 -25 -45 34 c-25 19 -62
41 -81 50 -48 20 -63 3 -22 -26 18 -13 41 -41 51 -64 17 -38 19 -75 19 -551
l0 -509 -35 -36 -36 -36 86 -68 86 -67 84 66 c47 36 85 69 85 74 0 4 -13 20
-30 36 l-30 29 0 276 0 277 81 66 82 65 28 -20 c60 -45 61 -54 57 -451 -3
-355 -3 -363 -26 -409 -35 -71 -119 -141 -238 -200 -57 -27 -104 -53 -104 -57
0 -3 4 -12 8 -19 6 -9 23 -6 72 14 240 97 407 221 463 342 21 46 22 58 22 417
0 360 -1 371 -22 410 -22 41 -60 81 -103 108 -25 16 -27 15 -170 -99 l-145
-116 -3 209 c-3 239 3 268 69 327 60 55 52 67 -28 41z"/>
<path d="M4235 2150 c-49 -28 -129 -66 -177 -86 l-88 -37 0 -329 c0 -275 -2
-334 -15 -358 -9 -17 -20 -30 -25 -30 -23 0 -8 -30 18 -36 106 -24 156 -40
222 -72 41 -20 80 -36 85 -35 12 0 302 199 310 212 2 5 -1 13 -8 19 -9 7 -32
-5 -86 -43 l-74 -54 -54 21 c-30 11 -80 30 -111 43 l-57 23 0 92 0 93 210 148
c116 82 211 153 213 158 3 8 -253 314 -267 318 -3 1 -46 -20 -96 -47z m66
-195 c63 -69 114 -130 114 -134 0 -8 -180 -142 -232 -175 -10 -6 -13 40 -13
213 0 122 4 221 9 221 5 0 60 -56 122 -125z"/>
<path d="M5027 2175 c-37 -33 -149 -97 -219 -125 l-58 -24 0 -316 0 -317 -25
-37 c-14 -20 -25 -41 -25 -45 0 -5 33 -11 73 -13 74 -5 153 -36 273 -107 l51
-30 50 37 c27 21 97 60 156 87 l107 49 0 357 0 357 -69 21 c-82 25 -182 69
-239 105 -23 14 -43 26 -44 26 -2 0 -15 -12 -31 -25z m13 -161 c19 -6 65 -26
103 -44 l67 -32 0 -309 0 -309 -62 24 c-35 13 -93 36 -130 51 l-68 27 0 309 0
309 28 -6 c15 -4 43 -13 62 -20z"/>
<path d="M5697 2126 c-111 -92 -111 -92 -103 -111 5 -15 9 -14 36 5 18 13 38
19 48 15 38 -11 42 -46 42 -336 0 -296 -4 -323 -49 -363 -11 -11 -21 -23 -21
-27 0 -4 23 -15 52 -25 28 -9 86 -41 129 -70 l78 -53 113 90 c140 112 132 104
121 123 -8 15 -16 12 -60 -24 l-51 -40 -56 46 -56 46 0 278 0 277 51 48 c28
26 54 43 58 39 5 -5 32 -44 60 -87 l52 -78 73 68 74 67 -52 66 c-28 36 -61 78
-73 94 l-22 28 -104 -91 c-57 -50 -107 -91 -110 -91 -2 0 -8 15 -11 33 -4 23
-25 52 -63 90 -32 32 -60 57 -63 57 -3 -1 -44 -34 -93 -74z"/>
<path d="M6715 2150 c-49 -28 -129 -66 -177 -86 l-88 -37 0 -329 c0 -275 -2
-334 -15 -358 -9 -17 -20 -30 -25 -30 -23 0 -8 -30 18 -36 106 -24 156 -40
222 -72 41 -20 80 -36 85 -35 12 0 302 199 310 212 2 5 -1 13 -8 19 -9 7 -32
-5 -86 -43 l-74 -54 -54 21 c-30 11 -80 30 -111 43 l-57 23 0 92 0 93 210 148
c116 82 211 153 213 158 3 8 -253 314 -267 318 -3 1 -46 -20 -96 -47z m66
-195 c63 -69 114 -130 114 -134 0 -8 -180 -142 -232 -175 -10 -6 -13 40 -13
213 0 122 4 221 9 221 5 0 60 -56 122 -125z"/>
<path d="M7259 2124 c-118 -94 -113 -89 -105 -109 5 -15 10 -14 41 5 43 27 61
21 80 -25 12 -27 15 -94 15 -334 l0 -300 -35 -28 c-19 -15 -35 -31 -35 -35 0
-4 38 -37 85 -73 l85 -67 85 68 86 68 -36 36 -35 36 0 276 0 275 74 62 c41 33
78 61 83 61 5 0 27 -18 48 -40 l40 -41 3 -290 3 -291 -35 -42 -35 -43 84 -67
85 -67 85 67 86 68 -36 36 -35 36 0 275 0 275 77 66 77 66 47 -40 48 -40 3
-332 c3 -329 3 -331 27 -373 13 -23 41 -56 62 -72 l37 -31 104 81 c57 45 104
84 105 87 2 4 -1 13 -6 21 -7 11 -14 10 -39 -8 -37 -26 -44 -26 -68 0 -18 20
-19 40 -19 333 0 339 -2 326 62 397 30 33 33 41 23 55 -12 13 -19 9 -60 -31
l-46 -45 -81 75 -81 75 -132 -115 c-73 -63 -137 -112 -141 -109 -5 3 -9 15 -9
26 0 41 -41 107 -96 153 -49 43 -57 46 -72 33 -9 -8 -73 -61 -142 -118 l-124
-103 -11 59 c-15 79 -47 123 -121 167 -5 3 -53 -28 -105 -69z"/>
</g>
</svg>
